# xmcd
# 
# Track frame offsets:
#   150
#   14776
#   25530
#   39723
#   53210
#   63862
#   81488
#   91908
#   104685
#   116020
#   128828
#   143255
#   158271
#   172281
#   183392
#   195873
#   206289
# 
# Disc length: 2894 seconds
# 
# Revision: 1
# Processed by: cddbd v1.5.2PL0 Copyright (c) Steve Scherf et al.
# Submitted via: Synapstar 1.0 
# 
DISCID=dd0b4c11
DTITLE=Various Artist - CBEP451-03
DYEAR=1900
DGENRE=Country
TTITLE0=Grandpa Jones - Mountain Dew
TTITLE1=Jim Reeves - He'll Have To Go
TTITLE2=Johnny Horton - North To Alaska
TTITLE3=Wanda Jackson - Right Or Wrong
TTITLE4=Leroy Van Dyle - Walk On By
TTITLE5=Marty Robbins - Don't Worry
TTITLE6=Jean Shepard - Second Fiddle, To An Old Guitar
TTITLE7=Ray Price - Heartaches By The Number
TTITLE8=Stonewall Jackson - Waterloo
TTITLE9=Kitty Wells - Heartbreak USA
TTITLE10=Marty Robbins - Devil Woman
TTITLE11=Jimmy Dean - Big Bad John
TTITLE12=Wanda Jackson - Window Up Above, The
TTITLE13=Cowboy Copas - Alabam
TTITLE14=Ferlin Husky - Wings Of A Dove
TTITLE15=Patsy Cline - Blue Moon Of Kentucky
TTITLE16=Hank Snow - I've Been Everywhere
EXTD=Chartbusters MediaType: Karaoke CD+G Producer: Chartbuster
EXTT0=
EXTT1=
EXTT2=
EXTT3=
EXTT4=
EXTT5=
EXTT6=
EXTT7=
EXTT8=
EXTT9=
EXTT10=
EXTT11=
EXTT12=
EXTT13=
EXTT14=
EXTT15=
EXTT16=
PLAYORDER=
